<svg xmlns="http://www.w3.org/2000/svg" width="1024" height="1024" viewBox="0 0 1024 1024" shape-rendering="crispEdges"><rect width="100%" height="100%" fill="#ffffff"/><rect x="55.35" y="55.35" width="27.68" height="27.68" fill="#e07088"/><rect x="83.03" y="55.35" width="27.68" height="27.68" fill="#e07384"/><rect x="110.70" y="55.35" width="27.68" height="27.68" fill="#e07681"/><rect x="138.38" y="55.35" width="27.68" height="27.68" fill="#e0797d"/><rect x="166.05" y="55.35" width="27.68" height="27.68" fill="#e07c79"/><rect x="193.73" y="55.35" width="27.68" height="27.68" fill="#e07f75"/><rect x="221.41" y="55.35" width="27.68" height="27.68" fill="#e08272"/><rect x="304.43" y="55.35" width="27.68" height="27.68" fill="#e08b66"/><rect x="359.78" y="55.35" width="27.68" height="27.68" fill="#df915e"/><rect x="415.14" y="55.35" width="27.68" height="27.68" fill="#db9552"/><rect x="498.16" y="55.35" width="27.68" height="27.68" fill="#d59c40"/><rect x="525.84" y="55.35" width="27.68" height="27.68" fill="#d29e3a"/><rect x="581.19" y="55.35" width="27.68" height="27.68" fill="#cea32e"/><rect x="608.86" y="55.35" width="27.68" height="27.68" fill="#cca528"/><rect x="664.22" y="55.35" width="27.68" height="27.68" fill="#c2a824"/><rect x="719.57" y="55.35" width="27.68" height="27.68" fill="#ada92e"/><rect x="774.92" y="55.35" width="27.68" height="27.68" fill="#98a939"/><rect x="802.59" y="55.35" width="27.68" height="27.68" fill="#8eaa3e"/><rect x="830.27" y="55.35" width="27.68" height="27.68" fill="#84aa43"/><rect x="857.95" y="55.35" width="27.68" height="27.68" fill="#79aa48"/><rect x="885.62" y="55.35" width="27.68" height="27.68" fill="#6faa4e"/><rect x="913.30" y="55.35" width="27.68" height="27.68" fill="#64ab53"/><rect x="940.97" y="55.35" width="27.68" height="27.68" fill="#5aab58"/><rect x="55.35" y="83.03" width="27.68" height="27.68" fill="#e07384"/><rect x="221.41" y="83.03" width="27.68" height="27.68" fill="#e0856e"/><rect x="304.43" y="83.03" width="27.68" height="27.68" fill="#e08e63"/><rect x="332.11" y="83.03" width="27.68" height="27.68" fill="#df915e"/><rect x="359.78" y="83.03" width="27.68" height="27.68" fill="#dd9358"/><rect x="415.14" y="83.03" width="27.68" height="27.68" fill="#d9984c"/><rect x="470.49" y="83.03" width="27.68" height="27.68" fill="#d59c40"/><rect x="498.16" y="83.03" width="27.68" height="27.68" fill="#d29e3a"/><rect x="525.84" y="83.03" width="27.68" height="27.68" fill="#d0a134"/><rect x="608.86" y="83.03" width="27.68" height="27.68" fill="#caa722"/><rect x="636.54" y="83.03" width="27.68" height="27.68" fill="#c2a824"/><rect x="664.22" y="83.03" width="27.68" height="27.68" fill="#b8a829"/><rect x="719.57" y="83.03" width="27.68" height="27.68" fill="#a3a933"/><rect x="774.92" y="83.03" width="27.68" height="27.68" fill="#8eaa3e"/><rect x="940.97" y="83.03" width="27.68" height="27.68" fill="#59aa63"/><rect x="55.35" y="110.70" width="27.68" height="27.68" fill="#e07681"/><rect x="110.70" y="110.70" width="27.68" height="27.68" fill="#e07c79"/><rect x="138.38" y="110.70" width="27.68" height="27.68" fill="#e07f75"/><rect x="166.05" y="110.70" width="27.68" height="27.68" fill="#e08272"/><rect x="221.41" y="110.70" width="27.68" height="27.68" fill="#e0886a"/><rect x="276.76" y="110.70" width="27.68" height="27.68" fill="#e08e63"/><rect x="332.11" y="110.70" width="27.68" height="27.68" fill="#dd9358"/><rect x="359.78" y="110.70" width="27.68" height="27.68" fill="#db9552"/><rect x="387.46" y="110.70" width="27.68" height="27.68" fill="#d9984c"/><rect x="415.14" y="110.70" width="27.68" height="27.68" fill="#d79a46"/><rect x="470.49" y="110.70" width="27.68" height="27.68" fill="#d29e3a"/><rect x="553.51" y="110.70" width="27.68" height="27.68" fill="#cca528"/><rect x="581.19" y="110.70" width="27.68" height="27.68" fill="#caa722"/><rect x="636.54" y="110.70" width="27.68" height="27.68" fill="#b8a829"/><rect x="691.89" y="110.70" width="27.68" height="27.68" fill="#a3a933"/><rect x="719.57" y="110.70" width="27.68" height="27.68" fill="#98a939"/><rect x="774.92" y="110.70" width="27.68" height="27.68" fill="#84aa43"/><rect x="830.27" y="110.70" width="27.68" height="27.68" fill="#6faa4e"/><rect x="857.95" y="110.70" width="27.68" height="27.68" fill="#64ab53"/><rect x="885.62" y="110.70" width="27.68" height="27.68" fill="#5aab58"/><rect x="940.97" y="110.70" width="27.68" height="27.68" fill="#57a96d"/><rect x="55.35" y="138.38" width="27.68" height="27.68" fill="#e0797d"/><rect x="110.70" y="138.38" width="27.68" height="27.68" fill="#e07f75"/><rect x="138.38" y="138.38" width="27.68" height="27.68" fill="#e08272"/><rect x="166.05" y="138.38" width="27.68" height="27.68" fill="#e0856e"/><rect x="221.41" y="138.38" width="27.68" height="27.68" fill="#e08b66"/><rect x="276.76" y="138.38" width="27.68" height="27.68" fill="#df915e"/><rect x="304.43" y="138.38" width="27.68" height="27.68" fill="#dd9358"/><rect x="332.11" y="138.38" width="27.68" height="27.68" fill="#db9552"/><rect x="387.46" y="138.38" width="27.68" height="27.68" fill="#d79a46"/><rect x="470.49" y="138.38" width="27.68" height="27.68" fill="#d0a134"/><rect x="498.16" y="138.38" width="27.68" height="27.68" fill="#cea32e"/><rect x="525.84" y="138.38" width="27.68" height="27.68" fill="#cca528"/><rect x="553.51" y="138.38" width="27.68" height="27.68" fill="#caa722"/><rect x="636.54" y="138.38" width="27.68" height="27.68" fill="#ada92e"/><rect x="691.89" y="138.38" width="27.68" height="27.68" fill="#98a939"/><rect x="719.57" y="138.38" width="27.68" height="27.68" fill="#8eaa3e"/><rect x="774.92" y="138.38" width="27.68" height="27.68" fill="#79aa48"/><rect x="830.27" y="138.38" width="27.68" height="27.68" fill="#64ab53"/><rect x="857.95" y="138.38" width="27.68" height="27.68" fill="#5aab58"/><rect x="885.62" y="138.38" width="27.68" height="27.68" fill="#59aa63"/><rect x="940.97" y="138.38" width="27.68" height="27.68" fill="#56a778"/><rect x="55.35" y="166.05" width="27.68" height="27.68" fill="#e07c79"/><rect x="110.70" y="166.05" width="27.68" height="27.68" fill="#e08272"/><rect x="138.38" y="166.05" width="27.68" height="27.68" fill="#e0856e"/><rect x="166.05" y="166.05" width="27.68" height="27.68" fill="#e0886a"/><rect x="221.41" y="166.05" width="27.68" height="27.68" fill="#e08e63"/><rect x="304.43" y="166.05" width="27.68" height="27.68" fill="#db9552"/><rect x="387.46" y="166.05" width="27.68" height="27.68" fill="#d59c40"/><rect x="415.14" y="166.05" width="27.68" height="27.68" fill="#d29e3a"/><rect x="442.81" y="166.05" width="27.68" height="27.68" fill="#d0a134"/><rect x="470.49" y="166.05" width="27.68" height="27.68" fill="#cea32e"/><rect x="525.84" y="166.05" width="27.68" height="27.68" fill="#caa722"/><rect x="608.86" y="166.05" width="27.68" height="27.68" fill="#ada92e"/><rect x="664.22" y="166.05" width="27.68" height="27.68" fill="#98a939"/><rect x="691.89" y="166.05" width="27.68" height="27.68" fill="#8eaa3e"/><rect x="774.92" y="166.05" width="27.68" height="27.68" fill="#6faa4e"/><rect x="830.27" y="166.05" width="27.68" height="27.68" fill="#5aab58"/><rect x="857.95" y="166.05" width="27.68" height="27.68" fill="#59aa63"/><rect x="885.62" y="166.05" width="27.68" height="27.68" fill="#57a96d"/><rect x="940.97" y="166.05" width="27.68" height="27.68" fill="#54a682"/><rect x="55.35" y="193.73" width="27.68" height="27.68" fill="#e07f75"/><rect x="221.41" y="193.73" width="27.68" height="27.68" fill="#df915e"/><rect x="304.43" y="193.73" width="27.68" height="27.68" fill="#d9984c"/><rect x="332.11" y="193.73" width="27.68" height="27.68" fill="#d79a46"/><rect x="359.78" y="193.73" width="27.68" height="27.68" fill="#d59c40"/><rect x="415.14" y="193.73" width="27.68" height="27.68" fill="#d0a134"/><rect x="498.16" y="193.73" width="27.68" height="27.68" fill="#caa722"/><rect x="608.86" y="193.73" width="27.68" height="27.68" fill="#a3a933"/><rect x="636.54" y="193.73" width="27.68" height="27.68" fill="#98a939"/><rect x="719.57" y="193.73" width="27.68" height="27.68" fill="#79aa48"/><rect x="774.92" y="193.73" width="27.68" height="27.68" fill="#64ab53"/><rect x="940.97" y="193.73" width="27.68" height="27.68" fill="#53a58d"/><rect x="55.35" y="221.41" width="27.68" height="27.68" fill="#e08272"/><rect x="83.03" y="221.41" width="27.68" height="27.68" fill="#e0856e"/><rect x="110.70" y="221.41" width="27.68" height="27.68" fill="#e0886a"/><rect x="138.38" y="221.41" width="27.68" height="27.68" fill="#e08b66"/><rect x="166.05" y="221.41" width="27.68" height="27.68" fill="#e08e63"/><rect x="193.73" y="221.41" width="27.68" height="27.68" fill="#df915e"/><rect x="221.41" y="221.41" width="27.68" height="27.68" fill="#dd9358"/><rect x="276.76" y="221.41" width="27.68" height="27.68" fill="#d9984c"/><rect x="332.11" y="221.41" width="27.68" height="27.68" fill="#d59c40"/><rect x="387.46" y="221.41" width="27.68" height="27.68" fill="#d0a134"/><rect x="442.81" y="221.41" width="27.68" height="27.68" fill="#cca528"/><rect x="498.16" y="221.41" width="27.68" height="27.68" fill="#c2a824"/><rect x="553.51" y="221.41" width="27.68" height="27.68" fill="#ada92e"/><rect x="608.86" y="221.41" width="27.68" height="27.68" fill="#98a939"/><rect x="664.22" y="221.41" width="27.68" height="27.68" fill="#84aa43"/><rect x="719.57" y="221.41" width="27.68" height="27.68" fill="#6faa4e"/><rect x="774.92" y="221.41" width="27.68" height="27.68" fill="#5aab58"/><rect x="802.59" y="221.41" width="27.68" height="27.68" fill="#59aa63"/><rect x="830.27" y="221.41" width="27.68" height="27.68" fill="#57a96d"/><rect x="857.95" y="221.41" width="27.68" height="27.68" fill="#56a778"/><rect x="885.62" y="221.41" width="27.68" height="27.68" fill="#54a682"/><rect x="913.30" y="221.41" width="27.68" height="27.68" fill="#53a58d"/><rect x="940.97" y="221.41" width="27.68" height="27.68" fill="#51a497"/><rect x="332.11" y="249.08" width="27.68" height="27.68" fill="#d29e3a"/><rect x="359.78" y="249.08" width="27.68" height="27.68" fill="#d0a134"/><rect x="415.14" y="249.08" width="27.68" height="27.68" fill="#cca528"/><rect x="498.16" y="249.08" width="27.68" height="27.68" fill="#b8a829"/><rect x="525.84" y="249.08" width="27.68" height="27.68" fill="#ada92e"/><rect x="553.51" y="249.08" width="27.68" height="27.68" fill="#a3a933"/><rect x="664.22" y="249.08" width="27.68" height="27.68" fill="#79aa48"/><rect x="691.89" y="249.08" width="27.68" height="27.68" fill="#6faa4e"/><rect x="138.38" y="276.76" width="27.68" height="27.68" fill="#df915e"/><rect x="166.05" y="276.76" width="27.68" height="27.68" fill="#dd9358"/><rect x="221.41" y="276.76" width="27.68" height="27.68" fill="#d9984c"/><rect x="249.08" y="276.76" width="27.68" height="27.68" fill="#d79a46"/><rect x="332.11" y="276.76" width="27.68" height="27.68" fill="#d0a134"/><rect x="359.78" y="276.76" width="27.68" height="27.68" fill="#cea32e"/><rect x="387.46" y="276.76" width="27.68" height="27.68" fill="#cca528"/><rect x="442.81" y="276.76" width="27.68" height="27.68" fill="#c2a824"/><rect x="470.49" y="276.76" width="27.68" height="27.68" fill="#b8a829"/><rect x="525.84" y="276.76" width="27.68" height="27.68" fill="#a3a933"/><rect x="581.19" y="276.76" width="27.68" height="27.68" fill="#8eaa3e"/><rect x="691.89" y="276.76" width="27.68" height="27.68" fill="#64ab53"/><rect x="719.57" y="276.76" width="27.68" height="27.68" fill="#5aab58"/><rect x="857.95" y="276.76" width="27.68" height="27.68" fill="#53a58d"/><rect x="885.62" y="276.76" width="27.68" height="27.68" fill="#51a497"/><rect x="83.03" y="304.43" width="27.68" height="27.68" fill="#e08e63"/><rect x="138.38" y="304.43" width="27.68" height="27.68" fill="#dd9358"/><rect x="166.05" y="304.43" width="27.68" height="27.68" fill="#db9552"/><rect x="193.73" y="304.43" width="27.68" height="27.68" fill="#d9984c"/><rect x="276.76" y="304.43" width="27.68" height="27.68" fill="#d29e3a"/><rect x="332.11" y="304.43" width="27.68" height="27.68" fill="#cea32e"/><rect x="359.78" y="304.43" width="27.68" height="27.68" fill="#cca528"/><rect x="387.46" y="304.43" width="27.68" height="27.68" fill="#caa722"/><rect x="442.81" y="304.43" width="27.68" height="27.68" fill="#b8a829"/><rect x="498.16" y="304.43" width="27.68" height="27.68" fill="#a3a933"/><rect x="525.84" y="304.43" width="27.68" height="27.68" fill="#98a939"/><rect x="664.22" y="304.43" width="27.68" height="27.68" fill="#64ab53"/><rect x="691.89" y="304.43" width="27.68" height="27.68" fill="#5aab58"/><rect x="747.24" y="304.43" width="27.68" height="27.68" fill="#57a96d"/><rect x="802.59" y="304.43" width="27.68" height="27.68" fill="#54a682"/><rect x="830.27" y="304.43" width="27.68" height="27.68" fill="#53a58d"/><rect x="857.95" y="304.43" width="27.68" height="27.68" fill="#51a497"/><rect x="885.62" y="304.43" width="27.68" height="27.68" fill="#50a2a2"/><rect x="83.03" y="332.11" width="27.68" height="27.68" fill="#df915e"/><rect x="138.38" y="332.11" width="27.68" height="27.68" fill="#db9552"/><rect x="166.05" y="332.11" width="27.68" height="27.68" fill="#d9984c"/><rect x="193.73" y="332.11" width="27.68" height="27.68" fill="#d79a46"/><rect x="221.41" y="332.11" width="27.68" height="27.68" fill="#d59c40"/><rect x="276.76" y="332.11" width="27.68" height="27.68" fill="#d0a134"/><rect x="304.43" y="332.11" width="27.68" height="27.68" fill="#cea32e"/><rect x="332.11" y="332.11" width="27.68" height="27.68" fill="#cca528"/><rect x="359.78" y="332.11" width="27.68" height="27.68" fill="#caa722"/><rect x="387.46" y="332.11" width="27.68" height="27.68" fill="#c2a824"/><rect x="415.14" y="332.11" width="27.68" height="27.68" fill="#b8a829"/><rect x="442.81" y="332.11" width="27.68" height="27.68" fill="#ada92e"/><rect x="470.49" y="332.11" width="27.68" height="27.68" fill="#a3a933"/><rect x="498.16" y="332.11" width="27.68" height="27.68" fill="#98a939"/><rect x="553.51" y="332.11" width="27.68" height="27.68" fill="#84aa43"/><rect x="608.86" y="332.11" width="27.68" height="27.68" fill="#6faa4e"/><rect x="636.54" y="332.11" width="27.68" height="27.68" fill="#64ab53"/><rect x="691.89" y="332.11" width="27.68" height="27.68" fill="#59aa63"/><rect x="719.57" y="332.11" width="27.68" height="27.68" fill="#57a96d"/><rect x="774.92" y="332.11" width="27.68" height="27.68" fill="#54a682"/><rect x="802.59" y="332.11" width="27.68" height="27.68" fill="#53a58d"/><rect x="913.30" y="332.11" width="27.68" height="27.68" fill="#4da0b7"/><rect x="940.97" y="332.11" width="27.68" height="27.68" fill="#4b9fc1"/><rect x="55.35" y="359.78" width="27.68" height="27.68" fill="#df915e"/><rect x="83.03" y="359.78" width="27.68" height="27.68" fill="#dd9358"/><rect x="110.70" y="359.78" width="27.68" height="27.68" fill="#db9552"/><rect x="138.38" y="359.78" width="27.68" height="27.68" fill="#d9984c"/><rect x="166.05" y="359.78" width="27.68" height="27.68" fill="#d79a46"/><rect x="193.73" y="359.78" width="27.68" height="27.68" fill="#d59c40"/><rect x="359.78" y="359.78" width="27.68" height="27.68" fill="#c2a824"/><rect x="387.46" y="359.78" width="27.68" height="27.68" fill="#b8a829"/><rect x="415.14" y="359.78" width="27.68" height="27.68" fill="#ada92e"/><rect x="442.81" y="359.78" width="27.68" height="27.68" fill="#a3a933"/><rect x="525.84" y="359.78" width="27.68" height="27.68" fill="#84aa43"/><rect x="553.51" y="359.78" width="27.68" height="27.68" fill="#79aa48"/><rect x="581.19" y="359.78" width="27.68" height="27.68" fill="#6faa4e"/><rect x="608.86" y="359.78" width="27.68" height="27.68" fill="#64ab53"/><rect x="719.57" y="359.78" width="27.68" height="27.68" fill="#56a778"/><rect x="774.92" y="359.78" width="27.68" height="27.68" fill="#53a58d"/><rect x="802.59" y="359.78" width="27.68" height="27.68" fill="#51a497"/><rect x="830.27" y="359.78" width="27.68" height="27.68" fill="#50a2a2"/><rect x="885.62" y="359.78" width="27.68" height="27.68" fill="#4da0b7"/><rect x="913.30" y="359.78" width="27.68" height="27.68" fill="#4b9fc1"/><rect x="940.97" y="359.78" width="27.68" height="27.68" fill="#4c9cc8"/><rect x="166.05" y="387.46" width="27.68" height="27.68" fill="#d59c40"/><rect x="221.41" y="387.46" width="27.68" height="27.68" fill="#d0a134"/><rect x="276.76" y="387.46" width="27.68" height="27.68" fill="#cca528"/><rect x="304.43" y="387.46" width="27.68" height="27.68" fill="#caa722"/><rect x="415.14" y="387.46" width="27.68" height="27.68" fill="#a3a933"/><rect x="470.49" y="387.46" width="27.68" height="27.68" fill="#8eaa3e"/><rect x="525.84" y="387.46" width="27.68" height="27.68" fill="#79aa48"/><rect x="553.51" y="387.46" width="27.68" height="27.68" fill="#6faa4e"/><rect x="581.19" y="387.46" width="27.68" height="27.68" fill="#64ab53"/><rect x="608.86" y="387.46" width="27.68" height="27.68" fill="#5aab58"/><rect x="636.54" y="387.46" width="27.68" height="27.68" fill="#59aa63"/><rect x="664.22" y="387.46" width="27.68" height="27.68" fill="#57a96d"/><rect x="719.57" y="387.46" width="27.68" height="27.68" fill="#54a682"/><rect x="774.92" y="387.46" width="27.68" height="27.68" fill="#51a497"/><rect x="830.27" y="387.46" width="27.68" height="27.68" fill="#4ea1ac"/><rect x="857.95" y="387.46" width="27.68" height="27.68" fill="#4da0b7"/><rect x="913.30" y="387.46" width="27.68" height="27.68" fill="#4c9cc8"/><rect x="940.97" y="387.46" width="27.68" height="27.68" fill="#5097c8"/><rect x="55.35" y="415.14" width="27.68" height="27.68" fill="#db9552"/><rect x="110.70" y="415.14" width="27.68" height="27.68" fill="#d79a46"/><rect x="138.38" y="415.14" width="27.68" height="27.68" fill="#d59c40"/><rect x="166.05" y="415.14" width="27.68" height="27.68" fill="#d29e3a"/><rect x="249.08" y="415.14" width="27.68" height="27.68" fill="#cca528"/><rect x="276.76" y="415.14" width="27.68" height="27.68" fill="#caa722"/><rect x="304.43" y="415.14" width="27.68" height="27.68" fill="#c2a824"/><rect x="332.11" y="415.14" width="27.68" height="27.68" fill="#b8a829"/><rect x="387.46" y="415.14" width="27.68" height="27.68" fill="#a3a933"/><rect x="415.14" y="415.14" width="27.68" height="27.68" fill="#98a939"/><rect x="498.16" y="415.14" width="27.68" height="27.68" fill="#79aa48"/><rect x="553.51" y="415.14" width="27.68" height="27.68" fill="#64ab53"/><rect x="581.19" y="415.14" width="27.68" height="27.68" fill="#5aab58"/><rect x="608.86" y="415.14" width="27.68" height="27.68" fill="#59aa63"/><rect x="636.54" y="415.14" width="27.68" height="27.68" fill="#57a96d"/><rect x="664.22" y="415.14" width="27.68" height="27.68" fill="#56a778"/><rect x="691.89" y="415.14" width="27.68" height="27.68" fill="#54a682"/><rect x="747.24" y="415.14" width="27.68" height="27.68" fill="#51a497"/><rect x="885.62" y="415.14" width="27.68" height="27.68" fill="#4c9cc8"/><rect x="913.30" y="415.14" width="27.68" height="27.68" fill="#5097c8"/><rect x="55.35" y="442.81" width="27.68" height="27.68" fill="#d9984c"/><rect x="83.03" y="442.81" width="27.68" height="27.68" fill="#d79a46"/><rect x="138.38" y="442.81" width="27.68" height="27.68" fill="#d29e3a"/><rect x="166.05" y="442.81" width="27.68" height="27.68" fill="#d0a134"/><rect x="221.41" y="442.81" width="27.68" height="27.68" fill="#cca528"/><rect x="249.08" y="442.81" width="27.68" height="27.68" fill="#caa722"/><rect x="332.11" y="442.81" width="27.68" height="27.68" fill="#ada92e"/><rect x="359.78" y="442.81" width="27.68" height="27.68" fill="#a3a933"/><rect x="415.14" y="442.81" width="27.68" height="27.68" fill="#8eaa3e"/><rect x="442.81" y="442.81" width="27.68" height="27.68" fill="#84aa43"/><rect x="553.51" y="442.81" width="27.68" height="27.68" fill="#5aab58"/><rect x="581.19" y="442.81" width="27.68" height="27.68" fill="#59aa63"/><rect x="719.57" y="442.81" width="27.68" height="27.68" fill="#51a497"/><rect x="830.27" y="442.81" width="27.68" height="27.68" fill="#4b9fc1"/><rect x="857.95" y="442.81" width="27.68" height="27.68" fill="#4c9cc8"/><rect x="110.70" y="470.49" width="27.68" height="27.68" fill="#d29e3a"/><rect x="166.05" y="470.49" width="27.68" height="27.68" fill="#cea32e"/><rect x="193.73" y="470.49" width="27.68" height="27.68" fill="#cca528"/><rect x="276.76" y="470.49" width="27.68" height="27.68" fill="#b8a829"/><rect x="304.43" y="470.49" width="27.68" height="27.68" fill="#ada92e"/><rect x="387.46" y="470.49" width="27.68" height="27.68" fill="#8eaa3e"/><rect x="525.84" y="470.49" width="27.68" height="27.68" fill="#5aab58"/><rect x="553.51" y="470.49" width="27.68" height="27.68" fill="#59aa63"/><rect x="608.86" y="470.49" width="27.68" height="27.68" fill="#56a778"/><rect x="774.92" y="470.49" width="27.68" height="27.68" fill="#4da0b7"/><rect x="830.27" y="470.49" width="27.68" height="27.68" fill="#4c9cc8"/><rect x="885.62" y="470.49" width="27.68" height="27.68" fill="#5592c8"/><rect x="913.30" y="470.49" width="27.68" height="27.68" fill="#598dc8"/><rect x="55.35" y="498.16" width="27.68" height="27.68" fill="#d59c40"/><rect x="83.03" y="498.16" width="27.68" height="27.68" fill="#d29e3a"/><rect x="110.70" y="498.16" width="27.68" height="27.68" fill="#d0a134"/><rect x="138.38" y="498.16" width="27.68" height="27.68" fill="#cea32e"/><rect x="166.05" y="498.16" width="27.68" height="27.68" fill="#cca528"/><rect x="221.41" y="498.16" width="27.68" height="27.68" fill="#c2a824"/><rect x="276.76" y="498.16" width="27.68" height="27.68" fill="#ada92e"/><rect x="304.43" y="498.16" width="27.68" height="27.68" fill="#a3a933"/><rect x="332.11" y="498.16" width="27.68" height="27.68" fill="#98a939"/><rect x="359.78" y="498.16" width="27.68" height="27.68" fill="#8eaa3e"/><rect x="387.46" y="498.16" width="27.68" height="27.68" fill="#84aa43"/><rect x="691.89" y="498.16" width="27.68" height="27.68" fill="#50a2a2"/><rect x="774.92" y="498.16" width="27.68" height="27.68" fill="#4b9fc1"/><rect x="830.27" y="498.16" width="27.68" height="27.68" fill="#5097c8"/><rect x="857.95" y="498.16" width="27.68" height="27.68" fill="#5592c8"/><rect x="885.62" y="498.16" width="27.68" height="27.68" fill="#598dc8"/><rect x="55.35" y="525.84" width="27.68" height="27.68" fill="#d29e3a"/><rect x="83.03" y="525.84" width="27.68" height="27.68" fill="#d0a134"/><rect x="249.08" y="525.84" width="27.68" height="27.68" fill="#ada92e"/><rect x="276.76" y="525.84" width="27.68" height="27.68" fill="#a3a933"/><rect x="332.11" y="525.84" width="27.68" height="27.68" fill="#8eaa3e"/><rect x="387.46" y="525.84" width="27.68" height="27.68" fill="#79aa48"/><rect x="442.81" y="525.84" width="27.68" height="27.68" fill="#64ab53"/><rect x="498.16" y="525.84" width="27.68" height="27.68" fill="#59aa63"/><rect x="553.51" y="525.84" width="27.68" height="27.68" fill="#56a778"/><rect x="608.86" y="525.84" width="27.68" height="27.68" fill="#53a58d"/><rect x="664.22" y="525.84" width="27.68" height="27.68" fill="#50a2a2"/><rect x="719.57" y="525.84" width="27.68" height="27.68" fill="#4da0b7"/><rect x="774.92" y="525.84" width="27.68" height="27.68" fill="#4c9cc8"/><rect x="802.59" y="525.84" width="27.68" height="27.68" fill="#5097c8"/><rect x="830.27" y="525.84" width="27.68" height="27.68" fill="#5592c8"/><rect x="857.95" y="525.84" width="27.68" height="27.68" fill="#598dc8"/><rect x="913.30" y="525.84" width="27.68" height="27.68" fill="#6283c8"/><rect x="940.97" y="525.84" width="27.68" height="27.68" fill="#677ec8"/><rect x="83.03" y="553.51" width="27.68" height="27.68" fill="#cea32e"/><rect x="110.70" y="553.51" width="27.68" height="27.68" fill="#cca528"/><rect x="221.41" y="553.51" width="27.68" height="27.68" fill="#ada92e"/><rect x="249.08" y="553.51" width="27.68" height="27.68" fill="#a3a933"/><rect x="415.14" y="553.51" width="27.68" height="27.68" fill="#64ab53"/><rect x="442.81" y="553.51" width="27.68" height="27.68" fill="#5aab58"/><rect x="470.49" y="553.51" width="27.68" height="27.68" fill="#59aa63"/><rect x="664.22" y="553.51" width="27.68" height="27.68" fill="#4ea1ac"/><rect x="691.89" y="553.51" width="27.68" height="27.68" fill="#4da0b7"/><rect x="802.59" y="553.51" width="27.68" height="27.68" fill="#5592c8"/><rect x="857.95" y="553.51" width="27.68" height="27.68" fill="#5e88c8"/><rect x="885.62" y="553.51" width="27.68" height="27.68" fill="#6283c8"/><rect x="940.97" y="553.51" width="27.68" height="27.68" fill="#6b79c8"/><rect x="55.35" y="581.19" width="27.68" height="27.68" fill="#cea32e"/><rect x="83.03" y="581.19" width="27.68" height="27.68" fill="#cca528"/><rect x="110.70" y="581.19" width="27.68" height="27.68" fill="#caa722"/><rect x="138.38" y="581.19" width="27.68" height="27.68" fill="#c2a824"/><rect x="166.05" y="581.19" width="27.68" height="27.68" fill="#b8a829"/><rect x="304.43" y="581.19" width="27.68" height="27.68" fill="#84aa43"/><rect x="387.46" y="581.19" width="27.68" height="27.68" fill="#64ab53"/><rect x="415.14" y="581.19" width="27.68" height="27.68" fill="#5aab58"/><rect x="498.16" y="581.19" width="27.68" height="27.68" fill="#56a778"/><rect x="525.84" y="581.19" width="27.68" height="27.68" fill="#54a682"/><rect x="581.19" y="581.19" width="27.68" height="27.68" fill="#51a497"/><rect x="608.86" y="581.19" width="27.68" height="27.68" fill="#50a2a2"/><rect x="691.89" y="581.19" width="27.68" height="27.68" fill="#4b9fc1"/><rect x="719.57" y="581.19" width="27.68" height="27.68" fill="#4c9cc8"/><rect x="747.24" y="581.19" width="27.68" height="27.68" fill="#5097c8"/><rect x="802.59" y="581.19" width="27.68" height="27.68" fill="#598dc8"/><rect x="830.27" y="581.19" width="27.68" height="27.68" fill="#5e88c8"/><rect x="857.95" y="581.19" width="27.68" height="27.68" fill="#6283c8"/><rect x="885.62" y="581.19" width="27.68" height="27.68" fill="#677ec8"/><rect x="940.97" y="581.19" width="27.68" height="27.68" fill="#7074c8"/><rect x="55.35" y="608.86" width="27.68" height="27.68" fill="#cca528"/><rect x="110.70" y="608.86" width="27.68" height="27.68" fill="#c2a824"/><rect x="138.38" y="608.86" width="27.68" height="27.68" fill="#b8a829"/><rect x="166.05" y="608.86" width="27.68" height="27.68" fill="#ada92e"/><rect x="221.41" y="608.86" width="27.68" height="27.68" fill="#98a939"/><rect x="249.08" y="608.86" width="27.68" height="27.68" fill="#8eaa3e"/><rect x="276.76" y="608.86" width="27.68" height="27.68" fill="#84aa43"/><rect x="304.43" y="608.86" width="27.68" height="27.68" fill="#79aa48"/><rect x="470.49" y="608.86" width="27.68" height="27.68" fill="#56a778"/><rect x="498.16" y="608.86" width="27.68" height="27.68" fill="#54a682"/><rect x="525.84" y="608.86" width="27.68" height="27.68" fill="#53a58d"/><rect x="553.51" y="608.86" width="27.68" height="27.68" fill="#51a497"/><rect x="608.86" y="608.86" width="27.68" height="27.68" fill="#4ea1ac"/><rect x="664.22" y="608.86" width="27.68" height="27.68" fill="#4b9fc1"/><rect x="774.92" y="608.86" width="27.68" height="27.68" fill="#598dc8"/><rect x="857.95" y="608.86" width="27.68" height="27.68" fill="#677ec8"/><rect x="55.35" y="636.54" width="27.68" height="27.68" fill="#caa722"/><rect x="138.38" y="636.54" width="27.68" height="27.68" fill="#ada92e"/><rect x="193.73" y="636.54" width="27.68" height="27.68" fill="#98a939"/><rect x="359.78" y="636.54" width="27.68" height="27.68" fill="#5aab58"/><rect x="442.81" y="636.54" width="27.68" height="27.68" fill="#56a778"/><rect x="470.49" y="636.54" width="27.68" height="27.68" fill="#54a682"/><rect x="498.16" y="636.54" width="27.68" height="27.68" fill="#53a58d"/><rect x="525.84" y="636.54" width="27.68" height="27.68" fill="#51a497"/><rect x="553.51" y="636.54" width="27.68" height="27.68" fill="#50a2a2"/><rect x="581.19" y="636.54" width="27.68" height="27.68" fill="#4ea1ac"/><rect x="608.86" y="636.54" width="27.68" height="27.68" fill="#4da0b7"/><rect x="636.54" y="636.54" width="27.68" height="27.68" fill="#4b9fc1"/><rect x="664.22" y="636.54" width="27.68" height="27.68" fill="#4c9cc8"/><rect x="719.57" y="636.54" width="27.68" height="27.68" fill="#5592c8"/><rect x="774.92" y="636.54" width="27.68" height="27.68" fill="#5e88c8"/><rect x="802.59" y="636.54" width="27.68" height="27.68" fill="#6283c8"/><rect x="830.27" y="636.54" width="27.68" height="27.68" fill="#677ec8"/><rect x="857.95" y="636.54" width="27.68" height="27.68" fill="#6b79c8"/><rect x="55.35" y="664.22" width="27.68" height="27.68" fill="#c2a824"/><rect x="110.70" y="664.22" width="27.68" height="27.68" fill="#ada92e"/><rect x="138.38" y="664.22" width="27.68" height="27.68" fill="#a3a933"/><rect x="193.73" y="664.22" width="27.68" height="27.68" fill="#8eaa3e"/><rect x="221.41" y="664.22" width="27.68" height="27.68" fill="#84aa43"/><rect x="249.08" y="664.22" width="27.68" height="27.68" fill="#79aa48"/><rect x="304.43" y="664.22" width="27.68" height="27.68" fill="#64ab53"/><rect x="332.11" y="664.22" width="27.68" height="27.68" fill="#5aab58"/><rect x="359.78" y="664.22" width="27.68" height="27.68" fill="#59aa63"/><rect x="470.49" y="664.22" width="27.68" height="27.68" fill="#53a58d"/><rect x="498.16" y="664.22" width="27.68" height="27.68" fill="#51a497"/><rect x="581.19" y="664.22" width="27.68" height="27.68" fill="#4da0b7"/><rect x="608.86" y="664.22" width="27.68" height="27.68" fill="#4b9fc1"/><rect x="664.22" y="664.22" width="27.68" height="27.68" fill="#5097c8"/><rect x="691.89" y="664.22" width="27.68" height="27.68" fill="#5592c8"/><rect x="774.92" y="664.22" width="27.68" height="27.68" fill="#6283c8"/><rect x="802.59" y="664.22" width="27.68" height="27.68" fill="#677ec8"/><rect x="830.27" y="664.22" width="27.68" height="27.68" fill="#6b79c8"/><rect x="913.30" y="664.22" width="27.68" height="27.68" fill="#796ac8"/><rect x="940.97" y="664.22" width="27.68" height="27.68" fill="#7e68c7"/><rect x="55.35" y="691.89" width="27.68" height="27.68" fill="#b8a829"/><rect x="138.38" y="691.89" width="27.68" height="27.68" fill="#98a939"/><rect x="166.05" y="691.89" width="27.68" height="27.68" fill="#8eaa3e"/><rect x="249.08" y="691.89" width="27.68" height="27.68" fill="#6faa4e"/><rect x="276.76" y="691.89" width="27.68" height="27.68" fill="#64ab53"/><rect x="332.11" y="691.89" width="27.68" height="27.68" fill="#59aa63"/><rect x="442.81" y="691.89" width="27.68" height="27.68" fill="#53a58d"/><rect x="498.16" y="691.89" width="27.68" height="27.68" fill="#50a2a2"/><rect x="581.19" y="691.89" width="27.68" height="27.68" fill="#4b9fc1"/><rect x="608.86" y="691.89" width="27.68" height="27.68" fill="#4c9cc8"/><rect x="664.22" y="691.89" width="27.68" height="27.68" fill="#5592c8"/><rect x="691.89" y="691.89" width="27.68" height="27.68" fill="#598dc8"/><rect x="719.57" y="691.89" width="27.68" height="27.68" fill="#5e88c8"/><rect x="830.27" y="691.89" width="27.68" height="27.68" fill="#7074c8"/><rect x="885.62" y="691.89" width="27.68" height="27.68" fill="#796ac8"/><rect x="940.97" y="691.89" width="27.68" height="27.68" fill="#8568c6"/><rect x="55.35" y="719.57" width="27.68" height="27.68" fill="#ada92e"/><rect x="83.03" y="719.57" width="27.68" height="27.68" fill="#a3a933"/><rect x="110.70" y="719.57" width="27.68" height="27.68" fill="#98a939"/><rect x="193.73" y="719.57" width="27.68" height="27.68" fill="#79aa48"/><rect x="221.41" y="719.57" width="27.68" height="27.68" fill="#6faa4e"/><rect x="249.08" y="719.57" width="27.68" height="27.68" fill="#64ab53"/><rect x="276.76" y="719.57" width="27.68" height="27.68" fill="#5aab58"/><rect x="304.43" y="719.57" width="27.68" height="27.68" fill="#59aa63"/><rect x="332.11" y="719.57" width="27.68" height="27.68" fill="#57a96d"/><rect x="359.78" y="719.57" width="27.68" height="27.68" fill="#56a778"/><rect x="387.46" y="719.57" width="27.68" height="27.68" fill="#54a682"/><rect x="415.14" y="719.57" width="27.68" height="27.68" fill="#53a58d"/><rect x="442.81" y="719.57" width="27.68" height="27.68" fill="#51a497"/><rect x="608.86" y="719.57" width="27.68" height="27.68" fill="#5097c8"/><rect x="691.89" y="719.57" width="27.68" height="27.68" fill="#5e88c8"/><rect x="719.57" y="719.57" width="27.68" height="27.68" fill="#6283c8"/><rect x="747.24" y="719.57" width="27.68" height="27.68" fill="#677ec8"/><rect x="774.92" y="719.57" width="27.68" height="27.68" fill="#6b79c8"/><rect x="802.59" y="719.57" width="27.68" height="27.68" fill="#7074c8"/><rect x="830.27" y="719.57" width="27.68" height="27.68" fill="#746fc8"/><rect x="276.76" y="747.24" width="27.68" height="27.68" fill="#59aa63"/><rect x="304.43" y="747.24" width="27.68" height="27.68" fill="#57a96d"/><rect x="470.49" y="747.24" width="27.68" height="27.68" fill="#4ea1ac"/><rect x="525.84" y="747.24" width="27.68" height="27.68" fill="#4b9fc1"/><rect x="553.51" y="747.24" width="27.68" height="27.68" fill="#4c9cc8"/><rect x="608.86" y="747.24" width="27.68" height="27.68" fill="#5592c8"/><rect x="636.54" y="747.24" width="27.68" height="27.68" fill="#598dc8"/><rect x="691.89" y="747.24" width="27.68" height="27.68" fill="#6283c8"/><rect x="719.57" y="747.24" width="27.68" height="27.68" fill="#677ec8"/><rect x="830.27" y="747.24" width="27.68" height="27.68" fill="#796ac8"/><rect x="857.95" y="747.24" width="27.68" height="27.68" fill="#7e68c7"/><rect x="885.62" y="747.24" width="27.68" height="27.68" fill="#8568c6"/><rect x="913.30" y="747.24" width="27.68" height="27.68" fill="#8c68c4"/><rect x="55.35" y="774.92" width="27.68" height="27.68" fill="#98a939"/><rect x="83.03" y="774.92" width="27.68" height="27.68" fill="#8eaa3e"/><rect x="110.70" y="774.92" width="27.68" height="27.68" fill="#84aa43"/><rect x="138.38" y="774.92" width="27.68" height="27.68" fill="#79aa48"/><rect x="166.05" y="774.92" width="27.68" height="27.68" fill="#6faa4e"/><rect x="193.73" y="774.92" width="27.68" height="27.68" fill="#64ab53"/><rect x="221.41" y="774.92" width="27.68" height="27.68" fill="#5aab58"/><rect x="276.76" y="774.92" width="27.68" height="27.68" fill="#57a96d"/><rect x="359.78" y="774.92" width="27.68" height="27.68" fill="#53a58d"/><rect x="387.46" y="774.92" width="27.68" height="27.68" fill="#51a497"/><rect x="415.14" y="774.92" width="27.68" height="27.68" fill="#50a2a2"/><rect x="442.81" y="774.92" width="27.68" height="27.68" fill="#4ea1ac"/><rect x="553.51" y="774.92" width="27.68" height="27.68" fill="#5097c8"/><rect x="608.86" y="774.92" width="27.68" height="27.68" fill="#598dc8"/><rect x="691.89" y="774.92" width="27.68" height="27.68" fill="#677ec8"/><rect x="719.57" y="774.92" width="27.68" height="27.68" fill="#6b79c8"/><rect x="774.92" y="774.92" width="27.68" height="27.68" fill="#746fc8"/><rect x="830.27" y="774.92" width="27.68" height="27.68" fill="#7e68c7"/><rect x="857.95" y="774.92" width="27.68" height="27.68" fill="#8568c6"/><rect x="885.62" y="774.92" width="27.68" height="27.68" fill="#8c68c4"/><rect x="55.35" y="802.59" width="27.68" height="27.68" fill="#8eaa3e"/><rect x="221.41" y="802.59" width="27.68" height="27.68" fill="#59aa63"/><rect x="304.43" y="802.59" width="27.68" height="27.68" fill="#54a682"/><rect x="359.78" y="802.59" width="27.68" height="27.68" fill="#51a497"/><rect x="498.16" y="802.59" width="27.68" height="27.68" fill="#4c9cc8"/><rect x="636.54" y="802.59" width="27.68" height="27.68" fill="#6283c8"/><rect x="664.22" y="802.59" width="27.68" height="27.68" fill="#677ec8"/><rect x="691.89" y="802.59" width="27.68" height="27.68" fill="#6b79c8"/><rect x="719.57" y="802.59" width="27.68" height="27.68" fill="#7074c8"/><rect x="830.27" y="802.59" width="27.68" height="27.68" fill="#8568c6"/><rect x="857.95" y="802.59" width="27.68" height="27.68" fill="#8c68c4"/><rect x="885.62" y="802.59" width="27.68" height="27.68" fill="#9268c3"/><rect x="913.30" y="802.59" width="27.68" height="27.68" fill="#9968c1"/><rect x="55.35" y="830.27" width="27.68" height="27.68" fill="#84aa43"/><rect x="110.70" y="830.27" width="27.68" height="27.68" fill="#6faa4e"/><rect x="138.38" y="830.27" width="27.68" height="27.68" fill="#64ab53"/><rect x="166.05" y="830.27" width="27.68" height="27.68" fill="#5aab58"/><rect x="221.41" y="830.27" width="27.68" height="27.68" fill="#57a96d"/><rect x="276.76" y="830.27" width="27.68" height="27.68" fill="#54a682"/><rect x="332.11" y="830.27" width="27.68" height="27.68" fill="#51a497"/><rect x="387.46" y="830.27" width="27.68" height="27.68" fill="#4ea1ac"/><rect x="415.14" y="830.27" width="27.68" height="27.68" fill="#4da0b7"/><rect x="470.49" y="830.27" width="27.68" height="27.68" fill="#4c9cc8"/><rect x="553.51" y="830.27" width="27.68" height="27.68" fill="#598dc8"/><rect x="636.54" y="830.27" width="27.68" height="27.68" fill="#677ec8"/><rect x="664.22" y="830.27" width="27.68" height="27.68" fill="#6b79c8"/><rect x="691.89" y="830.27" width="27.68" height="27.68" fill="#7074c8"/><rect x="719.57" y="830.27" width="27.68" height="27.68" fill="#746fc8"/><rect x="747.24" y="830.27" width="27.68" height="27.68" fill="#796ac8"/><rect x="774.92" y="830.27" width="27.68" height="27.68" fill="#7e68c7"/><rect x="802.59" y="830.27" width="27.68" height="27.68" fill="#8568c6"/><rect x="830.27" y="830.27" width="27.68" height="27.68" fill="#8c68c4"/><rect x="857.95" y="830.27" width="27.68" height="27.68" fill="#9268c3"/><rect x="913.30" y="830.27" width="27.68" height="27.68" fill="#9f68c0"/><rect x="55.35" y="857.95" width="27.68" height="27.68" fill="#79aa48"/><rect x="110.70" y="857.95" width="27.68" height="27.68" fill="#64ab53"/><rect x="138.38" y="857.95" width="27.68" height="27.68" fill="#5aab58"/><rect x="166.05" y="857.95" width="27.68" height="27.68" fill="#59aa63"/><rect x="221.41" y="857.95" width="27.68" height="27.68" fill="#56a778"/><rect x="276.76" y="857.95" width="27.68" height="27.68" fill="#53a58d"/><rect x="304.43" y="857.95" width="27.68" height="27.68" fill="#51a497"/><rect x="332.11" y="857.95" width="27.68" height="27.68" fill="#50a2a2"/><rect x="442.81" y="857.95" width="27.68" height="27.68" fill="#4c9cc8"/><rect x="498.16" y="857.95" width="27.68" height="27.68" fill="#5592c8"/><rect x="525.84" y="857.95" width="27.68" height="27.68" fill="#598dc8"/><rect x="553.51" y="857.95" width="27.68" height="27.68" fill="#5e88c8"/><rect x="636.54" y="857.95" width="27.68" height="27.68" fill="#6b79c8"/><rect x="664.22" y="857.95" width="27.68" height="27.68" fill="#7074c8"/><rect x="747.24" y="857.95" width="27.68" height="27.68" fill="#7e68c7"/><rect x="802.59" y="857.95" width="27.68" height="27.68" fill="#8c68c4"/><rect x="913.30" y="857.95" width="27.68" height="27.68" fill="#a668be"/><rect x="55.35" y="885.62" width="27.68" height="27.68" fill="#6faa4e"/><rect x="110.70" y="885.62" width="27.68" height="27.68" fill="#5aab58"/><rect x="138.38" y="885.62" width="27.68" height="27.68" fill="#59aa63"/><rect x="166.05" y="885.62" width="27.68" height="27.68" fill="#57a96d"/><rect x="221.41" y="885.62" width="27.68" height="27.68" fill="#54a682"/><rect x="332.11" y="885.62" width="27.68" height="27.68" fill="#4ea1ac"/><rect x="359.78" y="885.62" width="27.68" height="27.68" fill="#4da0b7"/><rect x="387.46" y="885.62" width="27.68" height="27.68" fill="#4b9fc1"/><rect x="442.81" y="885.62" width="27.68" height="27.68" fill="#5097c8"/><rect x="470.49" y="885.62" width="27.68" height="27.68" fill="#5592c8"/><rect x="498.16" y="885.62" width="27.68" height="27.68" fill="#598dc8"/><rect x="525.84" y="885.62" width="27.68" height="27.68" fill="#5e88c8"/><rect x="581.19" y="885.62" width="27.68" height="27.68" fill="#677ec8"/><rect x="830.27" y="885.62" width="27.68" height="27.68" fill="#9968c1"/><rect x="857.95" y="885.62" width="27.68" height="27.68" fill="#9f68c0"/><rect x="913.30" y="885.62" width="27.68" height="27.68" fill="#ac68bd"/><rect x="940.97" y="885.62" width="27.68" height="27.68" fill="#b368bb"/><rect x="55.35" y="913.30" width="27.68" height="27.68" fill="#64ab53"/><rect x="221.41" y="913.30" width="27.68" height="27.68" fill="#53a58d"/><rect x="304.43" y="913.30" width="27.68" height="27.68" fill="#4ea1ac"/><rect x="359.78" y="913.30" width="27.68" height="27.68" fill="#4b9fc1"/><rect x="415.14" y="913.30" width="27.68" height="27.68" fill="#5097c8"/><rect x="442.81" y="913.30" width="27.68" height="27.68" fill="#5592c8"/><rect x="470.49" y="913.30" width="27.68" height="27.68" fill="#598dc8"/><rect x="525.84" y="913.30" width="27.68" height="27.68" fill="#6283c8"/><rect x="553.51" y="913.30" width="27.68" height="27.68" fill="#677ec8"/><rect x="581.19" y="913.30" width="27.68" height="27.68" fill="#6b79c8"/><rect x="608.86" y="913.30" width="27.68" height="27.68" fill="#7074c8"/><rect x="664.22" y="913.30" width="27.68" height="27.68" fill="#796ac8"/><rect x="747.24" y="913.30" width="27.68" height="27.68" fill="#8c68c4"/><rect x="857.95" y="913.30" width="27.68" height="27.68" fill="#a668be"/><rect x="913.30" y="913.30" width="27.68" height="27.68" fill="#b368bb"/><rect x="940.97" y="913.30" width="27.68" height="27.68" fill="#b968ba"/><rect x="55.35" y="940.97" width="27.68" height="27.68" fill="#5aab58"/><rect x="83.03" y="940.97" width="27.68" height="27.68" fill="#59aa63"/><rect x="110.70" y="940.97" width="27.68" height="27.68" fill="#57a96d"/><rect x="138.38" y="940.97" width="27.68" height="27.68" fill="#56a778"/><rect x="166.05" y="940.97" width="27.68" height="27.68" fill="#54a682"/><rect x="193.73" y="940.97" width="27.68" height="27.68" fill="#53a58d"/><rect x="221.41" y="940.97" width="27.68" height="27.68" fill="#51a497"/><rect x="304.43" y="940.97" width="27.68" height="27.68" fill="#4da0b7"/><rect x="332.11" y="940.97" width="27.68" height="27.68" fill="#4b9fc1"/><rect x="387.46" y="940.97" width="27.68" height="27.68" fill="#5097c8"/><rect x="415.14" y="940.97" width="27.68" height="27.68" fill="#5592c8"/><rect x="442.81" y="940.97" width="27.68" height="27.68" fill="#598dc8"/><rect x="470.49" y="940.97" width="27.68" height="27.68" fill="#5e88c8"/><rect x="608.86" y="940.97" width="27.68" height="27.68" fill="#746fc8"/><rect x="691.89" y="940.97" width="27.68" height="27.68" fill="#8568c6"/><rect x="719.57" y="940.97" width="27.68" height="27.68" fill="#8c68c4"/><rect x="830.27" y="940.97" width="27.68" height="27.68" fill="#a668be"/><rect x="885.62" y="940.97" width="27.68" height="27.68" fill="#b368bb"/></svg>